<?xml version="1.0" encoding="UTF-8" standalone="no"?>
<svg xmlns="http://www.w3.org/2000/svg" xmlns:xlink="http://www.w3.org/1999/xlink" width="100.000mm" height="60.000mm" viewBox="42.098022 -99.544937 100.000244 59.999985">
    <path transform="matrix(1,0,0,-1,28.198273,207.19986)" style="stroke:#ff0000;stroke-width:0.050000mm;fill:none" d="M41.332054,249.997299L41.332054,248.087219"/>
    <path transform="matrix(1,0,0,-1,28.198273,207.19986)" style="stroke:#ff0000;stroke-width:0.050000mm;fill:none" d="M41.332054,248.087219L42.421715,248.087219"/>
    <path transform="matrix(1,0,0,-1,28.198273,207.19986)" style="stroke:#ff0000;stroke-width:0.050000mm;fill:none" d="M43.023697,249.997299L43.023697,248.087219"/>
    <path transform="matrix(1,0,0,-1,28.198273,207.19986)" style="stroke:#ff0000;stroke-width:0.050000mm;fill:none" d="M44.987122,249.542648L44.895676,249.722977L44.712799,249.905869L44.532455,249.997299L44.169235,249.997299L43.986359,249.905869L43.806015,249.722977L43.714577,249.542648L43.623135,249.268326L43.623135,248.81366L43.714577,248.541885L43.806015,248.359009L43.986359,248.178665L44.169235,248.087219L44.532455,248.087219L44.712799,248.178665L44.895676,248.359009L44.987122,248.541885L44.987122,248.81366"/>
    <path transform="matrix(1,0,0,-1,28.198273,207.19986)" style="stroke:#ff0000;stroke-width:0.050000mm;fill:none" d="M44.532455,248.81366L44.987122,248.81366"/>
    <path transform="matrix(1,0,0,-1,28.198273,207.19986)" style="stroke:#ff0000;stroke-width:0.050000mm;fill:none" d="M45.586559,249.997299L45.586559,248.087219"/>
    <path transform="matrix(1,0,0,-1,28.198273,207.19986)" style="stroke:#ff0000;stroke-width:0.050000mm;fill:none" d="M46.8591,249.997299L46.8591,248.087219"/>
    <path transform="matrix(1,0,0,-1,28.198273,207.19986)" style="stroke:#ff0000;stroke-width:0.050000mm;fill:none" d="M45.586559,249.087982L46.8591,249.087982"/>
    <path transform="matrix(1,0,0,-1,28.198273,207.19986)" style="stroke:#ff0000;stroke-width:0.050000mm;fill:none" d="M48.096085,249.997299L48.096085,248.087219"/>
    <path transform="matrix(1,0,0,-1,28.198273,207.19986)" style="stroke:#ff0000;stroke-width:0.050000mm;fill:none" d="M47.458542,249.997299L48.731087,249.997299"/>
    <path transform="matrix(1,0,0,-1,28.372581,205.945892)" style="stroke:#ff0000;stroke-width:0.050000mm;fill:none" d="M17.710007,267.419189L17.710007,266.329529"/>
    <path transform="matrix(1,0,0,-1,28.372581,205.945892)" style="stroke:#ff0000;stroke-width:0.050000mm;fill:none" d="M17.710007,267.419189L18.177368,267.419189L18.332308,267.368408L18.385649,267.315063L18.436449,267.210907L18.436449,267.055969L18.385649,266.951843L18.332308,266.901031L18.177368,266.847687L17.710007,266.847687"/>
    <path transform="matrix(1,0,0,-1,28.372581,205.945892)" style="stroke:#ff0000;stroke-width:0.050000mm;fill:none" d="M18.779348,267.419189L19.04097,266.329529"/>
    <path transform="matrix(1,0,0,-1,28.372581,205.945892)" style="stroke:#ff0000;stroke-width:0.050000mm;fill:none" d="M19.300049,267.419189L19.04097,266.329529"/>
    <path transform="matrix(1,0,0,-1,28.372581,205.945892)" style="stroke:#ff0000;stroke-width:0.050000mm;fill:none" d="M19.300049,267.419189L19.559132,266.329529"/>
    <path transform="matrix(1,0,0,-1,28.372581,205.945892)" style="stroke:#ff0000;stroke-width:0.050000mm;fill:none" d="M19.818211,267.419189L19.559132,266.329529"/>
    <path transform="matrix(1,0,0,-1,28.372581,205.945892)" style="stroke:#ff0000;stroke-width:0.050000mm;fill:none" d="M20.161112,267.419189L20.161112,266.329529"/>
    <path transform="matrix(1,0,0,-1,28.372581,205.945892)" style="stroke:#ff0000;stroke-width:0.050000mm;fill:none" d="M20.161112,267.419189L20.631012,267.419189L20.785954,267.368408L20.836754,267.315063L20.890093,267.210907L20.890093,267.106781L20.836754,267.002625L20.785954,266.951843L20.631012,266.901031L20.161112,266.901031"/>
    <path transform="matrix(1,0,0,-1,28.372581,205.945892)" style="stroke:#ff0000;stroke-width:0.050000mm;fill:none" d="M20.526873,266.901031L20.890093,266.329529"/>
    <path transform="matrix(1,0,0,-1,28.198273,206.655045)" style="stroke:#ff0000;stroke-width:0.050000mm;fill:none" d="M18.9,284.199982L95.399864,284.199982L96.899994,281.199982L16.9,281.199982L18.9,284.199982z"/>
    <path transform="matrix(1,0,0,-1,28.198273,206.655045)" style="stroke:#ff0000;stroke-width:0.050000mm;fill:none" d="M16.948006,295.222107L96.947998,295.222107L95.447868,291.222107L18.948006,291.222107L16.948006,295.222107z"/>
    <path transform="matrix(1,0,0,-1,52.735085,-79.917892)" style="stroke:#ff0000;stroke-width:0.050000mm;fill:none" d="M-0.96875,0.359375L-1.110352,0.359375L-1.1875,0.241699C-1.308413,0.100421,-1.458718,-0.012725,-1.62793,-0.089844L-1.62793,-0.302246C-1.467066,-0.240452,-1.318332,-0.150881,-1.188477,-0.037598L-1.188477,-1.4375L-0.96875,-1.4375L-0.96875,0.359375zM0.758789,-1.226563L-0.119141,-1.226563C0.008776,-1.056812,0.162897,-0.90846,0.337402,-0.787109L0.430664,-0.703125C0.614548,-0.569421,0.732959,-0.363844,0.756348,-0.137695C0.757111,0.112582,0.569081,0.323141,0.320313,0.350586C0.064295,0.418033,-0.205024,0.299102,-0.327637,0.064453C-0.358326,-0.006167,-0.376975,-0.081425,-0.382813,-0.158203L-0.157227,-0.181641L-0.150391,-0.101563C-0.126634,0.067147,0.02336,0.189016,0.193359,0.177734C0.279875,0.183778,0.365131,0.154018,0.4289,0.09524C0.492669,0.036461,0.529262,-0.046092,0.530273,-0.132813C0.503059,-0.302438,0.412964,-0.455444,0.277832,-0.561523C0.142147,-0.682228,0.005344,-0.801933,-0.132324,-0.92041L-0.253906,-1.046875C-0.358353,-1.150605,-0.41933,-1.29038,-0.424316,-1.4375L0.758789,-1.4375L0.758789,-1.226563zM1.716797,-1.458496C1.940634,-1.437438,2.124244,-1.273012,2.170977,-1.053101C2.217709,-0.83319,2.116829,-0.608308,1.920898,-0.498047L1.84375,-0.467285L1.959961,-0.40625C2.128405,-0.268358,2.157905,-0.022454,2.026855,0.151367C1.847896,0.372288,1.534536,0.428942,1.289551,0.284668C1.115929,0.180466,1.033969,-0.027538,1.089844,-0.222168C1.129071,-0.339984,1.222947,-0.431312,1.341797,-0.467285L1.264648,-0.493164C1.059515,-0.586335,0.952101,-0.814823,1.01123,-1.032227C1.047633,-1.182764,1.142196,-1.313022,1.274753,-1.393106C1.40731,-1.473191,1.566606,-1.496303,1.716797,-1.458496zM1.473633,-0.362793L1.379883,-0.302246C1.299544,-0.219475,1.275621,-0.097178,1.318848,0.009766C1.366526,0.115856,1.473598,0.182606,1.589844,0.178711C1.666816,0.18103,1.741361,0.1518,1.796363,0.097903C1.851366,0.044006,1.882103,-0.02993,1.881348,-0.106934C1.882381,-0.220134,1.81314,-0.322051,1.70752,-0.362793C1.631843,-0.389491,1.549309,-0.389491,1.473633,-0.362793zM1.495605,-1.275391C1.334096,-1.234998,1.222434,-1.087806,1.227051,-0.921387C1.222152,-0.749783,1.342933,-0.600205,1.511719,-0.568848C1.607471,-0.547292,1.707952,-0.565022,1.790302,-0.618421C1.872652,-0.671819,1.929834,-0.756324,1.949219,-0.852539C1.988877,-1.022536,1.898967,-1.196349,1.737305,-1.262207C1.659897,-1.290822,1.575666,-1.295416,1.495605,-1.275391z"/>
    <path transform="matrix(1,0,0,-1,28.198273,206.655045)" style="stroke:#000000;stroke-width:0.050000mm;fill:none" d="M13.9,246.199997L13.9,306.199982L113.899986,306.199982L113.899986,246.199997L13.9,246.199997z"/>
    <path transform="matrix(1,0,0,-1,28.198273,206.655045)" style="stroke:#000000;stroke-width:0.050000mm;fill:none" d="M17.945288,300.44162L18.125843,300.455597L18.304007,300.488068L18.477888,300.538696L18.645641,300.606903L18.80549,300.692017L18.955746,300.793121L19.094805,300.909119L19.221201,301.038818L19.333591,301.180817L19.430784,301.333618L19.511751,301.495605L19.575634,301.66507L19.621754,301.84021L19.649624,302.019135L19.658945,302.199982L19.649624,302.380859L19.621754,302.559784L19.575634,302.734924L19.511751,302.904358L19.430784,303.066345L19.333591,303.219177L19.221201,303.361176L19.094805,303.490845L18.955746,303.606873L18.80549,303.707947L18.645641,303.79306L18.477888,303.861298L18.304007,303.911926L18.125843,303.944366L17.945288,303.958344L17.764252,303.953705L17.584656,303.93045L17.4084,303.888855L17.237354,303.829346L17.073338,303.752563L16.918079,303.659363L16.77323,303.550659L16.640327,303.427643L16.520775,303.291626L16.415844,303.144012L16.326645,302.98642L16.254124,302.820465L16.199049,302.647949L16.162006,302.470673L16.143385,302.290527L16.143385,302.109436L16.162006,301.929321L16.199049,301.752045L16.254124,301.579529L16.326645,301.413574L16.415844,301.255981L16.520775,301.108368L16.640327,300.972351L16.77323,300.849335L16.918079,300.740631L17.073338,300.6474L17.237354,300.570648L17.4084,300.511139L17.584656,300.469543L17.764252,300.446289L17.945288,300.44162z"/>
    <path transform="matrix(1,0,0,-1,28.198273,206.655045)" style="stroke:#000000;stroke-width:0.050000mm;fill:none" d="M17.945288,248.441635L18.125843,248.455612L18.304007,248.488083L18.477888,248.538696L18.645641,248.606918L18.80549,248.692032L18.955746,248.793121L19.094805,248.909134L19.221201,249.038818L19.333591,249.180832L19.430784,249.333633L19.511751,249.495621L19.575634,249.66507L19.621754,249.840195L19.649624,250.019135L19.658945,250.199997L19.649624,250.380859L19.621754,250.559799L19.575634,250.734924L19.511751,250.904373L19.430784,251.06636L19.333591,251.219162L19.221201,251.36116L19.094805,251.49086L18.955746,251.606873L18.80549,251.707962L18.645641,251.793076L18.477888,251.861298L18.304007,251.911911L18.125843,251.944382L17.945288,251.958359L17.764252,251.953705L17.584656,251.93045L17.4084,251.888855L17.237354,251.829346L17.073338,251.752579L16.918079,251.659348L16.77323,251.550659L16.640327,251.427643L16.520775,251.291611L16.415844,251.144012L16.326645,250.986404L16.254124,250.820465L16.199049,250.647949L16.162006,250.470688L16.143385,250.290543L16.143385,250.109451L16.162006,249.929306L16.199049,249.752045L16.254124,249.579529L16.326645,249.413589L16.415844,249.255981L16.520775,249.108383L16.640327,248.972351L16.77323,248.849335L16.918079,248.740646L17.073338,248.647415L17.237354,248.570648L17.4084,248.511139L17.584656,248.469543L17.764252,248.446289L17.945288,248.441635z"/>
    <path transform="matrix(1,0,0,-1,28.198273,206.655045)" style="stroke:#000000;stroke-width:0.050000mm;fill:none" d="M109.764236,300.446289L109.945282,300.44162L110.125839,300.455597L110.304001,300.488068L110.477882,300.538696L110.645638,300.606903L110.805481,300.692017L110.955727,300.793121L111.094803,300.909119L111.221191,301.038818L111.33358,301.180817L111.430779,301.333618L111.511742,301.495605L111.57563,301.66507L111.62175,301.84021L111.64962,302.019135L111.658943,302.199982L111.64962,302.380859L111.62175,302.559784L111.57563,302.734924L111.511742,302.904358L111.430779,303.066345L111.33358,303.219177L111.221191,303.361176L111.094803,303.490845L110.955727,303.606873L110.805481,303.707947L110.645638,303.79306L110.477882,303.861298L110.304001,303.911926L110.125839,303.944366L109.945282,303.958344L109.764236,303.953705L109.584648,303.93045L109.408386,303.888855L109.23735,303.829346L109.073334,303.752563L108.918083,303.659363L108.773216,303.550659L108.64032,303.427643L108.520767,303.291626L108.41584,303.144012L108.326637,302.98642L108.25412,302.820465L108.199043,302.647949L108.162003,302.470673L108.143379,302.290527L108.143379,302.109436L108.162003,301.929321L108.199043,301.752045L108.25412,301.579529L108.326637,301.413574L108.41584,301.255981L108.520767,301.108368L108.64032,300.972351L108.773216,300.849335L108.918083,300.740631L109.073334,300.6474L109.23735,300.570648L109.408386,300.511139L109.584648,300.469543L109.764236,300.446289z"/>
    <path transform="matrix(1,0,0,-1,28.198273,206.655045)" style="stroke:#000000;stroke-width:0.050000mm;fill:none" d="M109.945282,248.441635L110.125839,248.455612L110.304001,248.488083L110.477882,248.538696L110.645638,248.606918L110.805481,248.692032L110.955727,248.793121L111.094803,248.909134L111.221191,249.038818L111.33358,249.180832L111.430779,249.333633L111.511742,249.495621L111.57563,249.66507L111.62175,249.840195L111.64962,250.019135L111.658943,250.199997L111.64962,250.380859L111.62175,250.559799L111.57563,250.734924L111.511742,250.904373L111.430779,251.06636L111.33358,251.219162L111.221191,251.36116L111.094803,251.49086L110.955727,251.606873L110.805481,251.707962L110.645638,251.793076L110.477882,251.861298L110.304001,251.911911L110.125839,251.944382L109.945282,251.958359L109.764236,251.953705L109.584648,251.93045L109.408386,251.888855L109.23735,251.829346L109.073334,251.752579L108.918083,251.659348L108.773216,251.550659L108.64032,251.427643L108.520767,251.291611L108.41584,251.144012L108.326637,250.986404L108.25412,250.820465L108.199043,250.647949L108.162003,250.470688L108.143379,250.290543L108.143379,250.109451L108.162003,249.929306L108.199043,249.752045L108.25412,249.579529L108.326637,249.413589L108.41584,249.255981L108.520767,249.108383L108.64032,248.972351L108.773216,248.849335L108.918083,248.740646L109.073334,248.647415L109.23735,248.570648L109.408386,248.511139L109.584648,248.469543L109.764236,248.446289L109.945282,248.441635z"/>
    <path transform="matrix(1,0,0,-1,28.198273,206.655045)" style="stroke:#000000;stroke-width:0.050000mm;fill:none" d="M73.185799,277.755493L73.185158,277.756042"/>
    <path transform="matrix(1,0,0,-1,28.198273,206.655045)" style="stroke:#000000;stroke-width:0.050000mm;fill:none" d="M73.185822,272.55661L73.185188,272.556061"/>
    <path transform="matrix(1,0,0,-1,28.198273,206.655045)" style="stroke:#000000;stroke-width:0.050000mm;fill:none" d="M70.946404,277.755493L70.947037,277.756042"/>
    <path transform="matrix(1,0,0,-1,28.198273,206.655045)" style="stroke:#000000;stroke-width:0.050000mm;fill:none" d="M63.02578,277.755493L63.025139,277.756042"/>
    <path transform="matrix(1,0,0,-1,28.198273,206.655045)" style="stroke:#000000;stroke-width:0.050000mm;fill:none" d="M63.025803,272.55661L63.025169,272.556061"/>
    <path transform="matrix(1,0,0,-1,28.198273,206.655045)" style="stroke:#000000;stroke-width:0.050000mm;fill:none" d="M60.786385,277.755493L60.787018,277.756042"/>
    <path transform="matrix(1,0,0,-1,28.198273,206.655045)" style="stroke:#000000;stroke-width:0.050000mm;fill:none" d="M53.373756,277.755493L53.373123,277.756042"/>
    <path transform="matrix(1,0,0,-1,28.198273,206.655045)" style="stroke:#000000;stroke-width:0.050000mm;fill:none" d="M53.373779,272.55661L53.373154,272.556061"/>
    <path transform="matrix(1,0,0,-1,28.198273,206.655045)" style="stroke:#000000;stroke-width:0.050000mm;fill:none" d="M51.134361,277.755493L51.134995,277.756042"/>
    <path transform="matrix(1,0,0,-1,28.198273,206.655045)" style="stroke:#000000;stroke-width:0.050000mm;fill:none" d="M43.213737,277.755493L43.213104,277.756042"/>
    <path transform="matrix(1,0,0,-1,28.198273,206.655045)" style="stroke:#000000;stroke-width:0.050000mm;fill:none" d="M43.213764,272.55661L43.213127,272.556061"/>
    <path transform="matrix(1,0,0,-1,28.198273,206.655045)" style="stroke:#000000;stroke-width:0.050000mm;fill:none" d="M40.974342,277.755493L40.974976,277.756042"/>
    <path transform="matrix(1,0,0,-1,28.198273,206.655045)" style="stroke:#000000;stroke-width:0.050000mm;fill:none" d="M33.30772,277.755493L33.307083,277.756042"/>
    <path transform="matrix(1,0,0,-1,28.198273,206.655045)" style="stroke:#000000;stroke-width:0.050000mm;fill:none" d="M33.307747,272.55661L33.30711,272.556061"/>
    <path transform="matrix(1,0,0,-1,28.198273,206.655045)" style="stroke:#000000;stroke-width:0.050000mm;fill:none" d="M31.068323,277.755493L31.068958,277.756042"/>
    <path transform="matrix(1,0,0,-1,28.198273,206.655045)" style="stroke:#000000;stroke-width:0.050000mm;fill:none" d="M23.147701,277.755493L23.147064,277.756042"/>
    <path transform="matrix(1,0,0,-1,28.198273,206.655045)" style="stroke:#000000;stroke-width:0.050000mm;fill:none" d="M23.147724,272.55661L23.147091,272.556061"/>
    <path transform="matrix(1,0,0,-1,28.198273,206.655045)" style="stroke:#000000;stroke-width:0.050000mm;fill:none" d="M20.908304,277.755493L20.908939,277.756042"/>
    <path transform="matrix(1.699351,0,0,-1.181101,3.555901,253.58815)" style="stroke:#000000;stroke-width:0.042333mm;fill:none" d="M31.411047,252.804016L38.411049,252.804016L39.061035,253.453995L39.061035,265.504028L31.411047,265.504028L31.411047,252.804016z"/>
    <path transform="matrix(1.569209,0,0,-1.569212,-0.677719,355.614441)" style="stroke:#000000;stroke-width:0.031863mm;fill:none" d="M53.879929,265.198975L54.235023,264.843872L54.235023,258.189087L47.225121,258.189087L47.225121,265.198975L53.879929,265.198975z"/>
    <path transform="matrix(1,0,0,-1,28.198273,206.655045)" style="stroke:#000000;stroke-width:0.050000mm;fill:none" d="M54.413078,265.199219L54.406219,265.199219"/>
    <rect transform="matrix(1,0,0,-1,50.275307,-68.501404)" style="stroke:#000000;stroke-width:0.050000mm;fill:none" x="-3.000004" y="-4.700003" width="6.000008" height="9.400005"/>
    <rect transform="matrix(1,0,0,-1,50.226021,-86.5354)" style="stroke:#000000;stroke-width:0.050000mm;fill:none" x="-1.699994" y="-1" width="3.399988" height="2"/>
    <rect transform="matrix(1,0,0,-1,60.386009,-86.5354)" style="stroke:#000000;stroke-width:0.050000mm;fill:none" x="-1.699994" y="-1" width="3.399988" height="2"/>
    <rect transform="matrix(1,0,0,-1,70.292015,-86.5354)" style="stroke:#000000;stroke-width:0.050000mm;fill:none" x="-1.699994" y="-1" width="3.399988" height="2"/>
    <rect transform="matrix(1,0,0,-1,80.706017,-86.5354)" style="stroke:#000000;stroke-width:0.050000mm;fill:none" x="-1.699994" y="-1" width="3.399988" height="2"/>
    <rect transform="matrix(1,0,0,-1,90.104012,-86.5354)" style="stroke:#000000;stroke-width:0.050000mm;fill:none" x="-1.699994" y="-1" width="3.399988" height="2"/>
    <rect transform="matrix(1,0,0,-1,100.264015,-86.5354)" style="stroke:#000000;stroke-width:0.050000mm;fill:none" x="-1.699994" y="-1" width="3.399988" height="2"/>
    <rect transform="matrix(1,0,0,-1,110.170021,-86.5354)" style="stroke:#000000;stroke-width:0.050000mm;fill:none" x="-1.699994" y="-1" width="3.399988" height="2"/>
    <rect transform="matrix(1,0,0,-1,120.330009,-86.5354)" style="stroke:#000000;stroke-width:0.050000mm;fill:none" x="-1.699994" y="-1" width="3.399988" height="2"/>
    <rect transform="matrix(1,0,0,-1,120.330009,-75.867401)" style="stroke:#000000;stroke-width:0.050000mm;fill:none" x="-1.699994" y="-1" width="3.399988" height="2"/>
    <rect transform="matrix(1,0,0,-1,110.170021,-75.867401)" style="stroke:#000000;stroke-width:0.050000mm;fill:none" x="-1.699994" y="-1" width="3.399988" height="2"/>
    <rect transform="matrix(1,0,0,-1,100.264015,-75.867401)" style="stroke:#000000;stroke-width:0.050000mm;fill:none" x="-1.699994" y="-1" width="3.399988" height="2"/>
    <rect transform="matrix(1,0,0,-1,90.104012,-75.867401)" style="stroke:#000000;stroke-width:0.050000mm;fill:none" x="-1.699994" y="-1" width="3.399988" height="2"/>
    <rect transform="matrix(1,0,0,-1,80.529015,-75.867401)" style="stroke:#000000;stroke-width:0.050000mm;fill:none" x="-1.699994" y="-1" width="3.399988" height="2"/>
    <rect transform="matrix(1,0,0,-1,70.292015,-75.867401)" style="stroke:#000000;stroke-width:0.050000mm;fill:none" x="-1.699994" y="-1" width="3.399988" height="2"/>
    <rect transform="matrix(1,0,0,-1,60.386009,-75.867401)" style="stroke:#000000;stroke-width:0.050000mm;fill:none" x="-1.699994" y="-1" width="3.399988" height="2"/>
    <rect transform="matrix(1,0,0,-1,50.226021,-75.867401)" style="stroke:#000000;stroke-width:0.050000mm;fill:none" x="-1.699994" y="-1" width="3.399988" height="2"/>
    <rect transform="matrix(1,0,0,-1,60.386009,-68.501404)" style="stroke:#000000;stroke-width:0.050000mm;fill:none" x="-3.000004" y="-4.700003" width="6.000008" height="9.400005"/>
    <rect transform="matrix(1,0,0,-1,70.292015,-68.501404)" style="stroke:#000000;stroke-width:0.050000mm;fill:none" x="-3.000004" y="-4.700003" width="6.000008" height="9.400005"/>
    <rect transform="matrix(1,0,0,-1,80.452019,-68.501404)" style="stroke:#000000;stroke-width:0.050000mm;fill:none" x="-3.000004" y="-4.700003" width="6.000008" height="9.400005"/>
    <rect transform="matrix(1,0,0,-1,90.104012,-68.501404)" style="stroke:#000000;stroke-width:0.050000mm;fill:none" x="-3.000004" y="-4.700003" width="6.000008" height="9.400005"/>
    <rect transform="matrix(1,0,0,-1,100.264015,-68.501404)" style="stroke:#000000;stroke-width:0.050000mm;fill:none" x="-3.000004" y="-4.700003" width="6.000008" height="9.400005"/>
    <rect transform="matrix(1,0,0,-1,110.170021,-68.501404)" style="stroke:#000000;stroke-width:0.050000mm;fill:none" x="-3.000004" y="-4.700003" width="6.000008" height="9.400005"/>
    <rect transform="matrix(1,0,0,-1,120.330009,-68.501404)" style="stroke:#000000;stroke-width:0.050000mm;fill:none" x="-3.000004" y="-4.700003" width="6.000008" height="9.400005"/>
    <rect transform="matrix(1,0,0,-1,91.882011,-52.753403)" style="stroke:#000000;stroke-width:0.050000mm;fill:none" x="-3.000004" y="-4.700003" width="6.000008" height="9.400005"/>
    <rect transform="matrix(1,0,0,-1,102.042015,-52.753403)" style="stroke:#000000;stroke-width:0.050000mm;fill:none" x="-3.000004" y="-4.700003" width="6.000008" height="9.400005"/>
    <rect transform="matrix(1,0,0,-1,111.948021,-52.753403)" style="stroke:#000000;stroke-width:0.050000mm;fill:none" x="-3.000004" y="-4.700003" width="6.000008" height="9.400005"/>
    <rect transform="matrix(1,0,0,-1,122.108009,-52.753403)" style="stroke:#000000;stroke-width:0.050000mm;fill:none" x="-3.000004" y="-4.700003" width="6.000008" height="9.400005"/>
    <rect transform="matrix(1,0,0,-1,132.268005,-52.753403)" style="stroke:#000000;stroke-width:0.050000mm;fill:none" x="-3.000004" y="-4.700003" width="6.000008" height="9.400005"/>
    <rect transform="matrix(1,0,0,-1,132.268005,-59.611404)" style="stroke:#000000;stroke-width:0.050000mm;fill:none" x="-1.699994" y="-1" width="3.399988" height="2"/>
    <rect transform="matrix(1,0,0,-1,111.948021,-59.611404)" style="stroke:#000000;stroke-width:0.050000mm;fill:none" x="-1.699994" y="-1" width="3.399988" height="2"/>
    <rect transform="matrix(1,0,0,-1,91.882011,-59.611404)" style="stroke:#000000;stroke-width:0.050000mm;fill:none" x="-1.699994" y="-1" width="3.399988" height="2"/>
    <rect transform="matrix(1,0,0,-1,86.040016,-53.261398)" style="stroke:#000000;stroke-width:0.050000mm;fill:none" x="-1.125" y="-1.999994" width="2.25" height="3.999988"/>
    <path transform="matrix(1,0,0,-1,72.832008,-46.118271)" style="stroke:#000000;stroke-width:0.050000mm;fill:none" d="M2,-1.816589C2,-2.092735,1.776138,-2.316589,1.5,-2.316589L-1.5,-2.316589C-1.776138,-2.316589,-2,-2.092735,-2,-1.816589L-2,1.816589C-2,2.092728,-1.776138,2.316589,-1.5,2.316589L1.5,2.316589C1.776138,2.316589,2,2.092728,2,1.816589L2,-1.816589z"/>
    <rect transform="matrix(-0,1,1,0,58.100014,-61.643402)" style="stroke:#000000;stroke-width:0.050000mm;fill:none" x="-1.05" y="-1.699998" width="2.1" height="3.399996"/>
    <path transform="matrix(1,0,0,-1,54.305779,-51.839951)" style="stroke:#000000;stroke-width:0.050000mm;fill:none" d="M1.104462,-6.608231C1.104462,-6.884369,0.8806,-7.108231,0.604462,-7.108231L-0.604462,-7.108231C-0.8806,-7.108231,-1.104462,-6.884377,-1.104462,-6.608231L-1.104462,6.608215C-1.104462,6.884354,-0.8806,7.108215,-0.604462,7.108215L0.604462,7.108215C0.8806,7.108215,1.104462,6.884354,1.104462,6.608215L1.104462,-6.608231z"/>
    <path transform="matrix(1,0,0,-1,49.151543,-58.353409)" style="stroke:#000000;stroke-width:0.050000mm;fill:none" d="M3.73819,-0.519501C3.73819,-0.795639,3.514328,-1.019501,3.23819,-1.019501L-3.23819,-1.019501C-3.514328,-1.019501,-3.73819,-0.795639,-3.73819,-0.519501L-3.73819,0.519501C-3.73819,0.795639,-3.514328,1.019501,-3.23819,1.019501L3.23819,1.019501C3.514328,1.019501,3.73819,0.795639,3.73819,0.519501L3.73819,-0.519501z"/>
    <rect transform="matrix(1,0,0,-1,50.978172,-51.259338)" style="stroke:#000000;stroke-width:0.050000mm;fill:none" x="-1.090302" y="-1.854935" width="2.180603" height="3.709869"/>
    <path transform="matrix(1,0,0,-1,45.598015,-51.483398)" style="stroke:#000000;stroke-width:0.050000mm;fill:none" d="M3.5,-5C3.5,-5.276138,3.276138,-5.5,3,-5.5L-3.499993,-5.5L-3.499993,5.5L3,5.5C3.276138,5.5,3.5,5.276138,3.5,5L3.5,-5z"/>
    <path transform="matrix(1,0,0,-1,64.195778,-79.917892)" style="stroke:#ff0000;stroke-width:0.050000mm;fill:none" d="M-0.432129,-1.44873C-0.284857,-1.40936,-0.16237,-1.307228,-0.097168,-1.169434C0.054997,-0.89897,-0.014522,-0.557203,-0.260254,-0.367676C-0.45733,-0.232078,-0.72153,-0.249234,-0.899414,-0.40918L-0.987305,-0.514648C-0.992156,-0.374154,-0.971136,-0.233968,-0.925293,-0.101074C-0.881097,0.083173,-0.701738,0.202817,-0.514648,0.172852C-0.382294,0.144083,-0.284478,0.031555,-0.274414,-0.103516L-0.056152,-0.086426C-0.068984,0.102688,-0.192952,0.266187,-0.371582,0.32959C-0.657563,0.432446,-0.974857,0.296828,-1.098145,0.019043C-1.241796,-0.356423,-1.245432,-0.770507,-1.108398,-1.148438C-0.985308,-1.398875,-0.700453,-1.525363,-0.432129,-1.44873zM1.12793,-1.009277L1.369629,-1.009277L1.369629,-0.807617L1.12793,-0.807617L1.12793,0.352051L0.948242,0.352051L0.131836,-0.807617L0.131836,-1.009277L0.908203,-1.009277L0.908203,-1.4375L1.12793,-1.4375L1.12793,-1.009277zM0.347656,-0.807617L0.908203,-0.000977L0.908203,-0.807617L0.347656,-0.807617zM-0.681641,-1.273926C-0.826456,-1.218174,-0.92845,-1.088258,-0.951827,-0.934895C-0.975205,-0.781532,-0.91655,-0.627128,-0.794922,-0.530762C-0.654682,-0.433907,-0.464768,-0.453811,-0.347656,-0.577637C-0.213074,-0.754577,-0.213673,-0.999014,-0.349121,-1.175293C-0.429992,-1.272092,-0.561068,-1.310972,-0.681641,-1.273926z"/>
    <path transform="matrix(1,0,0,-1,73.629723,-79.917892)" style="stroke:#ff0000;stroke-width:0.050000mm;fill:none" d="M-0.463867,-1.458984C-0.271943,-1.427838,-0.108444,-1.302646,-0.02832,-1.125488C0.074912,-0.915221,0.011099,-0.661001,-0.179199,-0.524414C-0.222967,-0.498342,-0.270598,-0.479388,-0.320313,-0.468262L-0.212891,-0.402344C-0.059922,-0.269673,-0.028265,-0.044738,-0.138672,0.125C-0.308213,0.357945,-0.623484,0.428887,-0.876465,0.291016C-1.018469,0.205372,-1.113843,0.059887,-1.135742,-0.104492L-0.916016,-0.143555L-0.875977,-0.002441C-0.80748,0.150595,-0.629912,0.221881,-0.474609,0.158691C-0.342664,0.107055,-0.270224,-0.035305,-0.306152,-0.172363C-0.355369,-0.324589,-0.50585,-0.420126,-0.664551,-0.399902L-0.699707,-0.397461L-0.724121,-0.590332L-0.63916,-0.572266C-0.54842,-0.55143,-0.453022,-0.56807,-0.374955,-0.618795C-0.296888,-0.669521,-0.242925,-0.74993,-0.225098,-0.841309C-0.204789,-0.937818,-0.223651,-1.038486,-0.277721,-1.120965C-0.331791,-1.203445,-0.416583,-1.260893,-0.513184,-1.280762C-0.66564,-1.316278,-0.822009,-1.239218,-0.886719,-1.09668L-0.937988,-0.936035L-1.157715,-0.965332C-1.142607,-1.177604,-1.00414,-1.361206,-0.804199,-1.434082C-0.69453,-1.470302,-0.577641,-1.478855,-0.463867,-1.458984zM1.395996,-1.226563L0.518555,-1.226563L0.560059,-1.166504C0.74741,-0.979655,0.942396,-0.800632,1.144531,-0.629883L1.203613,-0.567383C1.316136,-0.470613,1.38461,-0.332113,1.392178,-0.183899C1.399746,-0.035684,1.345734,0.10907,1.243652,0.216797C1.006195,0.406327,0.671353,0.410543,0.429199,0.227051C0.322833,0.126465,0.260224,-0.011906,0.254883,-0.158203L0.480469,-0.181641L0.486816,-0.101563C0.510709,0.067262,0.660931,0.189144,0.831055,0.177734C0.917543,0.183689,1.002707,0.153841,1.066452,0.095085C1.130197,0.036329,1.166871,-0.046127,1.167969,-0.132813C1.140599,-0.30237,1.050524,-0.45534,0.915527,-0.561523C0.780285,-0.681534,0.641964,-0.802422,0.504883,-0.92041L0.383301,-1.046875C0.279053,-1.150709,0.218268,-1.290445,0.213379,-1.4375L1.395996,-1.4375L1.395996,-1.226563z"/>
    <path transform="matrix(1,0,0,-1,83.900505,-79.917892)" style="stroke:#ff0000;stroke-width:0.050000mm;fill:none" d="M-0.268555,0.359375L-0.410156,0.359375L-0.487793,0.241699C-0.608406,0.100307,-0.758579,-0.012864,-0.927734,-0.089844L-0.927734,-0.302246C-0.76689,-0.240414,-0.618161,-0.150845,-0.488281,-0.037598L-0.488281,-1.4375L-0.268555,-1.4375L-0.268555,0.359375zM1.067871,-1.44873C1.301814,-1.369044,1.463591,-1.156428,1.48156,-0.909965C1.499529,-0.663503,1.370302,-0.429671,1.150391,-0.316895C0.918002,-0.218792,0.648803,-0.302273,0.512695,-0.514648C0.485672,-0.279561,0.568962,-0.045194,0.738281,0.120117C0.844097,0.197191,0.986926,0.199536,1.095215,0.125977C1.166456,0.068922,1.213056,-0.013108,1.225586,-0.103516L1.443848,-0.086426C1.431016,0.102688,1.307048,0.266187,1.128418,0.32959C0.842437,0.432446,0.525143,0.296828,0.401855,0.019043C0.258204,-0.356423,0.254568,-0.770507,0.391602,-1.148438C0.514692,-1.398875,0.799547,-1.525363,1.067871,-1.44873zM0.818359,-1.273926C0.619091,-1.195848,0.506562,-0.984262,0.553223,-0.775391C0.566761,-0.678498,0.619648,-0.591404,0.699569,-0.534978C0.77949,-0.478552,0.879262,-0.457867,0.975098,-0.477539C1.15199,-0.521446,1.269604,-0.688811,1.250977,-0.870117C1.263857,-0.970982,1.235111,-1.072848,1.170974,-1.151751C1.106837,-1.230654,1.01299,-1.279602,0.911621,-1.287598L0.818359,-1.273926z"/>
    <path transform="matrix(1,0,0,-1,93.325523,-79.917892)" style="stroke:#ff0000;stroke-width:0.050000mm;fill:none" d="M0.242188,-1.458496C0.384753,-1.439131,0.513745,-1.363523,0.599878,-1.248281C0.68601,-1.133039,0.721996,-0.987916,0.700195,-0.845703C0.676002,-0.664316,0.545284,-0.515116,0.368652,-0.467285L0.484863,-0.40625C0.653379,-0.268387,0.682884,-0.022442,0.551758,0.151367C0.37298,0.372245,0.059774,0.428908,-0.185059,0.284668C-0.359059,0.180773,-0.44129,-0.027411,-0.385254,-0.222168C-0.345715,-0.339794,-0.25197,-0.430996,-0.133301,-0.467285L-0.209961,-0.493164C-0.415575,-0.585858,-0.523183,-0.814758,-0.463379,-1.032227C-0.427165,-1.182874,-0.332626,-1.313252,-0.200015,-1.393369C-0.067404,-1.473486,0.091987,-1.496521,0.242188,-1.458496zM-0.001465,-0.362793L-0.095215,-0.302246C-0.175553,-0.219475,-0.199477,-0.097178,-0.15625,0.009766C-0.108571,0.115856,-0.0015,0.182606,0.114746,0.178711C0.191741,0.18112,0.266309,0.151881,0.321329,0.097967C0.376349,0.044053,0.407096,-0.029906,0.40625,-0.106934C0.407284,-0.220135,0.338042,-0.322052,0.232422,-0.362793C0.156745,-0.389491,0.074212,-0.389491,-0.001465,-0.362793zM0.020508,-1.275391C-0.140768,-1.234612,-0.252229,-1.087686,-0.248047,-0.921387C-0.252889,-0.749809,-0.132127,-0.600255,0.036621,-0.568848C0.132375,-0.547252,0.232866,-0.564984,0.315225,-0.618388C0.397584,-0.671793,0.454772,-0.756306,0.474121,-0.852539C0.513779,-1.022537,0.423869,-1.196349,0.262207,-1.262207C0.184803,-1.290844,0.100568,-1.295438,0.020508,-1.275391z"/>
    <path transform="matrix(1,0,0,-1,103.328697,-79.917892)" style="stroke:#ff0000;stroke-width:0.050000mm;fill:none" d="M0.402832,-1.009277L0.644531,-1.009277L0.644531,-0.807617L0.402832,-0.807617L0.402832,0.352051L0.223633,0.352051L-0.593262,-0.807617L-0.593262,-1.009277L0.183105,-1.009277L0.183105,-1.4375L0.402832,-1.4375L0.402832,-1.009277zM-0.377441,-0.807617L0.183105,-0.000977L0.183105,-0.807617L-0.377441,-0.807617z"/>
    <path transform="matrix(1,0,0,-1,112.617149,-79.917892)" style="stroke:#ff0000;stroke-width:0.050000mm;fill:none" d="M0.670898,-1.226563L-0.206543,-1.226563L-0.165039,-1.166504C0.022312,-0.979655,0.217299,-0.800632,0.419434,-0.629883L0.479004,-0.567383C0.59135,-0.470477,0.659645,-0.331957,0.667118,-0.183783C0.674592,-0.035609,0.62058,0.10908,0.518555,0.216797C0.281091,0.4063,-0.053738,0.410516,-0.295898,0.227051C-0.402265,0.126465,-0.464874,-0.011906,-0.470215,-0.158203L-0.244629,-0.181641L-0.237793,-0.101563C-0.214342,0.067313,-0.064143,0.18935,0.105957,0.177734C0.192473,0.183778,0.277728,0.154018,0.341497,0.09524C0.405266,0.036461,0.441859,-0.046092,0.442871,-0.132813C0.39139,-0.34829,0.26237,-0.536698,0.080078,-0.662598L-0.054199,-0.775879C-0.240962,-0.904163,-0.390162,-1.080001,-0.486328,-1.285156C-0.505154,-1.333658,-0.513797,-1.385515,-0.511719,-1.4375L0.670898,-1.4375L0.670898,-1.226563z"/>
    <path transform="matrix(1,0,0,-1,122.834114,-79.917892)" style="stroke:#ff0000;stroke-width:0.050000mm;fill:none" d="M0.59375,0.359375L0.452148,0.359375L0.375,0.241699C0.254087,0.100421,0.103782,-0.012725,-0.06543,-0.089844L-0.06543,-0.302246C0.095434,-0.240451,0.244168,-0.15088,0.374023,-0.037598L0.374023,-1.4375L0.59375,-1.4375L0.59375,0.359375z"/>
    <path transform="matrix(1,0,0,-1,29.498016,206.655045)" style="stroke:#ff0000;stroke-width:0.050000mm;fill:none" d="M26.899998,293.199982L26.899998,269.199982"/>
    <path transform="matrix(1,0,0,-1,29.498016,206.655045)" style="stroke:#ff0000;stroke-width:0.050000mm;fill:none" d="M36.899998,293.199982L36.899998,269.199982"/>
    <path transform="matrix(1,0,0,-1,29.498016,206.655045)" style="stroke:#ff0000;stroke-width:0.050000mm;fill:none" d="M46.900002,293.199982L46.900002,269.199982"/>
    <path transform="matrix(1,0,0,-1,29.498016,206.655045)" style="stroke:#ff0000;stroke-width:0.050000mm;fill:none" d="M56.899994,293.199982L56.899994,269.199982"/>
    <path transform="matrix(1,0,0,-1,29.498016,206.655045)" style="stroke:#ff0000;stroke-width:0.050000mm;fill:none" d="M66.899994,293.199982L66.899994,269.199982"/>
    <path transform="matrix(1,0,0,-1,29.498016,206.655045)" style="stroke:#ff0000;stroke-width:0.050000mm;fill:none" d="M76.899994,293.199982L76.899994,269.199982"/>
    <path transform="matrix(1,0,0,-1,29.498016,206.655045)" style="stroke:#ff0000;stroke-width:0.050000mm;fill:none" d="M86.899994,293.199982L86.899994,269.199982"/>
    <path transform="matrix(1,0,0,-1,0,0)" style="stroke:none;fill:#ff8000;fill-rule:evenodd" d="M133.767273,45.912415L134.388367,44.08429L134.644714,44.08429L135.268738,45.881653L135.268738,44.08429L135.542664,44.08429L135.542664,46.23175L135.160339,46.23175C134.940842,45.622456,134.731339,45.009571,134.531921,44.393372L134.429382,44.711243L133.921082,46.23175L133.493347,46.23175L133.493347,44.08429L133.767273,44.08429L133.767273,45.912415z"/>
    <path transform="matrix(1,0,0,-1,0,0)" style="stroke:none;fill:#ff8000;fill-rule:evenodd" d="M133.100769,44.337708L131.78241,44.337708L131.78241,45.068665L132.970398,45.068665L132.970398,45.320618L131.78241,45.320618L131.78241,45.978333L133.050964,45.978333L133.050964,46.23175L131.49823,46.23175L131.49823,44.08429L133.100769,44.08429L133.100769,44.337708z"/>
    <path transform="matrix(1,0,0,-1,0,0)" style="stroke:none;fill:#ff8000;fill-rule:evenodd" d="M129.267273,45.912415L129.888367,44.08429L130.144714,44.08429L130.768738,45.881653L130.768738,44.08429L131.042664,44.08429L131.042664,46.23175L130.660339,46.23175C130.440811,45.622387,130.231339,45.00959,130.031921,44.393372L129.929382,44.711243L129.421082,46.23175L128.993347,46.23175L128.993347,44.08429L129.267273,44.08429L129.267273,45.912415z"/>
    <path transform="matrix(1,0,0,-1,0,0)" style="stroke:none;fill:#ff8000;fill-rule:evenodd" d="M124.731056,45.037903L125.060646,45.037903C125.233009,45.05558,125.400681,44.973732,125.492775,44.826965C125.666176,44.586346,125.829391,44.338589,125.982033,44.08429L126.339455,44.08429C126.192123,44.341347,126.02906,44.58905,125.851173,44.825989C125.775627,44.928364,125.674866,45.009445,125.558693,45.06134L125.703224,45.089661C126.004707,45.14399,126.207344,45.43034,126.158302,45.732727C126.138741,45.880344,126.064018,46.015713,125.947411,46.108257C125.830795,46.200798,125.681992,46.242813,125.533791,46.228333C125.171593,46.238659,124.809128,46.239799,124.446877,46.23175L124.446877,44.08429L124.731056,44.08429L124.731056,45.037903zM124.731056,45.283997L124.731056,45.994446C124.994652,46.006363,125.258682,46.004406,125.522072,45.988586C125.61377,45.989128,125.702393,45.954075,125.767769,45.889797C125.833145,45.82552,125.86969,45.737503,125.870705,45.645813C125.868446,45.451313,125.710236,45.294632,125.515724,45.29425C125.254593,45.275421,124.992592,45.271996,124.731056,45.283997z"/>
    <path transform="matrix(1,0,0,-1,0,0)" style="stroke:none;fill:#ff8000;fill-rule:evenodd" d="M123.24131,44.093567C123.610138,44.112129,123.921295,44.375465,124.000587,44.736145C124.119713,45.120243,124.071686,45.536705,123.868263,45.883606C123.727364,46.091526,123.494362,46.218403,123.243263,46.223938C122.923149,46.237854,122.602623,46.240456,122.282326,46.23175L122.282326,44.08429C122.601944,44.071281,122.922012,44.074375,123.24131,44.093567zM122.566505,44.337708L122.566505,45.978333C122.817757,45.998253,123.070488,45.990067,123.319923,45.953918C123.587814,45.867455,123.766411,45.614193,123.757912,45.332825C123.791306,45.084747,123.75071,44.832336,123.641212,44.607239C123.553474,44.45293,123.392303,44.354717,123.214943,44.347473C122.999107,44.333115,122.782684,44.329857,122.566505,44.337708z"/>
    <path transform="matrix(1,0,0,-1,0,0)" style="stroke:none;fill:#ff8000;fill-rule:evenodd" d="M121.081154,44.093567C121.450012,44.112305,121.761223,44.375511,121.840919,44.736145C121.960129,45.120281,121.911911,45.536858,121.708107,45.883606C121.567291,46.091633,121.334251,46.218533,121.083107,46.223938C120.763161,46.237869,120.442787,46.240475,120.122658,46.23175L120.122658,44.08429C120.442108,44.071247,120.762016,44.074341,121.081154,44.093567zM120.406837,44.337708L120.406837,45.978333C120.657928,45.998241,120.9105,45.990051,121.159767,45.953918C121.427635,45.867332,121.606323,45.61422,121.598244,45.332825C121.631218,45.084702,121.590462,44.832367,121.481056,44.607239C121.393562,44.452694,121.232246,44.354389,121.054787,44.347473C120.839119,44.333096,120.622841,44.329834,120.406837,44.337708z"/>
    <path transform="matrix(1,0,0,-1,0,0)" style="stroke:none;fill:#ff8000;fill-rule:evenodd" d="M118.414162,44.73468L119.312111,44.73468L119.562599,44.08429L119.88633,44.08429L119.007423,46.23175L118.701271,46.23175L117.876564,44.08429L118.178322,44.08429L118.414162,44.73468zM118.496193,44.966125L118.732033,45.596008C118.781273,45.729492,118.819962,45.866634,118.847755,46.006165L118.910744,45.807922C119.011459,45.525997,119.116013,45.245247,119.22422,44.966125L118.496193,44.966125z"/>
    <path transform="matrix(1,0,0,-1,0,0)" style="stroke:none;fill:#ff8000;fill-rule:evenodd" d="M113.530785,45.77179L114.658714,44.08429L114.950218,44.08429L114.950218,46.23175L114.677757,46.23175L114.677757,44.545715L113.549828,46.23175L113.258324,46.23175L113.258324,44.08429L113.530785,44.08429L113.530785,45.77179z"/>
    <path transform="matrix(1,0,0,-1,0,0)" style="stroke:none;fill:#ff8000;fill-rule:evenodd" d="M112.10305,44.054993C112.298424,44.066936,112.482124,44.154739,112.611221,44.301819C112.740318,44.448902,112.803558,44.642433,112.790062,44.837708C112.806488,45.302254,112.808113,45.76712,112.794945,46.23175L112.510765,46.23175L112.510765,44.992493C112.531609,44.800388,112.484436,44.607025,112.377464,44.446106C112.139214,44.264015,111.813324,44.25172,111.562035,44.415344C111.440483,44.530575,111.378197,44.695293,111.393089,44.862122C111.381851,45.318523,111.380875,45.77528,111.39016,46.23175L111.10598,46.23175C111.093491,45.76437,111.095123,45.296673,111.110863,44.829407C111.100571,44.594097,111.196716,44.366459,111.372581,44.209778C111.588158,44.068718,111.848793,44.013489,112.10305,44.054993z"/>
    <path transform="matrix(1,0,0,-1,0,0)" style="stroke:none;fill:#ff8000;fill-rule:evenodd" d="M109.230003,45.037903L109.559593,45.037903C109.731941,45.055534,109.899605,44.973694,109.991722,44.826965C110.165039,44.586288,110.328255,44.338531,110.48098,44.08429L110.838402,44.08429C110.691078,44.341347,110.528008,44.589046,110.350121,44.825989C110.274574,44.928364,110.173813,45.009445,110.05764,45.06134L110.202171,45.089661C110.503639,45.144012,110.706268,45.430347,110.657249,45.732727C110.63768,45.880344,110.562965,46.015713,110.44635,46.108253C110.329742,46.200794,110.180939,46.242809,110.032738,46.228333C109.67054,46.238655,109.308075,46.239799,108.945824,46.23175L108.945824,44.08429L109.230003,44.08429L109.230003,45.037903zM109.230003,45.283997L109.230003,45.994446C109.493599,46.006363,109.757629,46.004406,110.021019,45.988586C110.112701,45.989086,110.201317,45.954037,110.266685,45.889767C110.332054,45.8255,110.368599,45.737492,110.369652,45.645813C110.367386,45.451122,110.208885,45.294361,110.014183,45.29425C109.75322,45.275387,109.491371,45.271961,109.230003,45.283997z"/>
    <path transform="matrix(1,0,0,-1,0,0)" style="stroke:none;fill:#ff8000;fill-rule:evenodd" d="M104.185081,45.978333L104.895531,45.978333L104.895531,46.23175L103.193382,46.23175L103.193382,45.978333L103.900902,45.978333L103.900902,44.08429L104.185081,44.08429L104.185081,45.978333z"/>
    <path transform="matrix(1,0,0,-1,0,0)" style="stroke:none;fill:#ff8000;fill-rule:evenodd" d="M99.472679,45.037903L99.802269,45.037903C99.974632,45.05558,100.142303,44.973732,100.234398,44.826965C100.407799,44.586346,100.571014,44.338585,100.723656,44.08429L101.081078,44.08429C100.933403,44.341022,100.770515,44.588696,100.593285,44.825989C100.5177,44.928516,100.416725,45.009628,100.300316,45.06134L100.444847,45.089661C100.746407,45.143898,100.949081,45.430302,100.899925,45.732727C100.880531,45.880333,100.805954,46.015751,100.6894,46.108315C100.572853,46.200878,100.424065,46.242867,100.275902,46.228333C99.91349,46.238628,99.550972,46.239769,99.188499,46.23175L99.188499,44.08429L99.472679,44.08429L99.472679,45.037903zM99.472679,45.283997L99.472679,45.994446C99.736435,46.00631,100.000633,46.004353,100.264183,45.988586C100.355812,45.989071,100.444328,45.953953,100.509613,45.889679C100.574898,45.825401,100.611389,45.737438,100.612328,45.645813C100.610069,45.451313,100.451859,45.294632,100.257347,45.29425C99.996216,45.275421,99.734215,45.271996,99.472679,45.283997z"/>
    <path transform="matrix(1,0,0,-1,0,0)" style="stroke:none;fill:#ff8000;fill-rule:evenodd" d="M102.381859,44.068665C102.564934,44.088009,102.73156,44.184502,102.837524,44.335022C102.943489,44.485538,102.978127,44.67495,102.934593,44.853821C102.849045,45.080429,102.647331,45.243069,102.407738,45.278625C102.259132,45.319859,102.10952,45.3573,101.959007,45.39093L101.835472,45.429504C101.760712,45.441563,101.693535,45.483128,101.650993,45.545746C101.608444,45.608364,101.594536,45.686123,101.610863,45.760071C101.664223,45.915363,101.812965,46.0177,101.977074,46.012024C102.175423,46.058167,102.383705,45.99913,102.528343,45.855774C102.581146,45.782524,102.612885,45.69627,102.62014,45.606262L102.892601,45.62677C102.889778,45.875637,102.737617,46.098484,102.506859,46.191711C102.189117,46.327919,101.824173,46.295261,101.535667,46.104797C101.324112,45.938404,101.268387,45.641216,101.405296,45.409485C101.533279,45.252468,101.712837,45.146427,101.912132,45.110168L102.292503,45.013489C102.45256,44.999962,102.594864,44.904789,102.66848,44.762024C102.710083,44.630066,102.660271,44.486401,102.545921,44.408508C102.242165,44.220768,101.848755,44.273003,101.604515,44.533508C101.554207,44.613194,101.523735,44.703777,101.515648,44.797668L101.247581,44.774231C101.249207,44.494282,101.417152,44.242077,101.674828,44.132629C101.900337,44.047413,102.144714,44.025303,102.381859,44.068665z"/>
    <path transform="matrix(1,0,0,-1,0,0)" style="stroke:none;fill:#ff8000;fill-rule:evenodd" d="M93.778008,45.037903C93.940475,45.051971,94.104065,45.048531,94.2658,45.027649C94.425232,44.970619,94.556183,44.853848,94.631035,44.701965C94.767952,44.498863,94.900642,44.292912,95.028984,44.08429L95.386406,44.08429C95.239082,44.341347,95.076012,44.58905,94.898125,44.825989C94.822571,44.928364,94.721809,45.009445,94.605644,45.06134L94.750175,45.089661C95.051575,45.144096,95.25399,45.430435,95.204765,45.732727C95.185463,45.880367,95.110863,46.015808,94.994301,46.108387C94.877731,46.200966,94.72892,46.242958,94.580742,46.228333C94.218544,46.238659,93.856079,46.239799,93.493828,46.23175L93.493828,44.08429L93.778008,44.08429L93.778008,45.037903zM93.778008,45.283997L93.778008,45.994446C94.041603,46.006363,94.305634,46.004406,94.569023,45.988586C94.660706,45.989086,94.749321,45.954037,94.81469,45.889767C94.880058,45.8255,94.916603,45.737492,94.917656,45.645813C94.91539,45.451122,94.756889,45.294361,94.562187,45.29425C94.301224,45.275387,94.039375,45.271961,93.778008,45.283997z"/>
    <path transform="matrix(1,0,0,-1,0,0)" style="stroke:none;fill:#ff8000;fill-rule:evenodd" d="M89.43914,45.77179L90.56707,44.08429L90.858574,44.08429L90.858574,46.23175L90.586113,46.23175L90.586113,44.545715L89.458183,46.23175L89.166679,46.23175L89.166679,44.08429L89.43914,44.08429L89.43914,45.77179z"/>
    <path transform="matrix(1,0,0,-1,0,0)" style="stroke:none;fill:#ff8000;fill-rule:evenodd" d="M88.661797,46.23175L88.377617,46.23175L88.377617,44.08429L88.661797,44.08429L88.661797,46.23175z"/>
    <path transform="matrix(1,0,0,-1,0,0)" style="stroke:none;fill:#ff8000;fill-rule:evenodd" d="M92.418144,44.059387C92.786156,44.115948,93.078125,44.399292,93.145683,44.765442L92.861504,44.837219L92.825859,44.710266C92.716782,44.387131,92.368217,44.211544,92.043633,44.316223C91.848061,44.365265,91.689423,44.508167,91.620293,44.697571C91.482201,45.047863,91.511505,45.441868,91.699883,45.767883C91.901619,46.016624,92.245209,46.09761,92.536797,45.965149C92.683472,45.881363,92.789185,45.741062,92.829277,45.576965L93.109062,45.642883C93.040413,45.920815,92.831238,46.14259,92.557793,46.227356C92.05146,46.394932,91.502991,46.130001,91.319511,45.629211C91.152168,45.160149,91.255821,44.637558,91.589531,44.267883C91.821945,44.080547,92.124741,44.00436,92.418144,44.059387z"/>
    <path transform="matrix(1,0,0,-1,0,0)" style="stroke:none;fill:#ff8000;fill-rule:evenodd" d="M133.384857,67.156921C133.633423,67.20121,133.845535,67.362106,133.95517,67.589539L133.95517,67.208679L134.277435,67.208679L134.277435,69.801453L133.916107,69.801453L133.916107,68.412292C133.938232,68.179321,133.888824,67.945099,133.774506,67.740906C133.647751,67.566589,133.425629,67.489952,133.218353,67.549011C133.027344,67.62986,132.908875,67.82254,132.922943,68.02948C132.900726,68.619843,132.897293,69.210869,132.912689,69.801453L132.553802,69.801453C132.541504,69.209435,132.542801,68.617043,132.557709,68.025085C132.540543,67.783821,132.616592,67.545006,132.770111,67.358093C132.930389,67.195534,133.159485,67.120567,133.384857,67.156921z"/>
    <path transform="matrix(1,0,0,-1,0,0)" style="stroke:none;fill:#ff8000;fill-rule:evenodd" d="M130.62265,67.477234C130.741043,67.280014,130.951797,67.156693,131.181732,67.150085C131.523712,67.173843,131.822327,67.388916,131.953217,67.70575C132.179977,68.250633,132.16777,68.865135,131.919525,69.400574C131.753326,69.773209,131.325317,69.951988,130.943451,69.808289C130.7939,69.73362,130.67215,69.613228,130.595795,69.464539L130.595795,69.801453L130.263763,69.801453L130.263763,66.215027L130.62265,66.215027L130.62265,67.477234zM131.050873,67.52655C130.826401,67.613976,130.666763,67.815392,130.632904,68.053894C130.533279,68.457291,130.581604,68.882813,130.769135,69.253601C130.858353,69.446808,131.072495,69.550491,131.279388,69.500671C131.506027,69.40934,131.666,69.203751,131.698822,68.961609C131.798416,68.557388,131.751907,68.131226,131.567474,67.757996C131.468445,67.572113,131.255508,67.476715,131.050873,67.52655z"/>
    <path transform="matrix(1,0,0,-1,0,0)" style="stroke:none;fill:#ff8000;fill-rule:evenodd" d="M128.322357,68.626648C128.301743,68.858093,128.355637,69.090103,128.476166,69.288757C128.631973,69.488739,128.912354,69.54071,129.129486,69.409851C129.266602,69.2855,129.339493,69.10582,129.327728,68.921082C129.341248,68.350311,129.342224,67.779503,129.330658,67.208679L129.689545,67.208679C129.697266,67.796097,129.696457,68.383492,129.687103,68.970886C129.711838,69.248322,129.609955,69.521858,129.40976,69.715515C129.135147,69.918114,128.75853,69.909683,128.493256,69.695007C128.409958,69.621323,128.340515,69.533363,128.288177,69.435242L128.288177,69.801453L127.96347,69.801453L127.96347,67.208679L128.322357,67.208679L128.322357,68.626648z"/>
    <path transform="matrix(1,0,0,-1,0,0)" style="stroke:none;fill:#ff8000;fill-rule:evenodd" d="M135.571381,67.184265L135.712982,67.213562L135.664154,67.601746L135.575775,67.58905C135.525238,67.570518,135.469238,67.572578,135.420731,67.595871C135.372223,67.619156,135.335587,67.661568,135.318451,67.712585C135.304672,67.788773,135.298615,67.866142,135.300385,67.943542L135.300385,69.459656L135.664154,69.459656L135.664154,69.801453L135.300385,69.801453L135.300385,70.707214L134.941498,70.443542L134.941498,69.801453L134.677826,69.801453L134.677826,69.459656L134.941498,69.459656L134.941498,67.967957C134.93335,67.795113,134.9478,67.621925,134.984467,67.45282C135.054993,67.264969,135.2453,67.149826,135.444427,67.1745L135.571381,67.184265z"/>
    <path transform="matrix(1,0,0,-1,0,0)" style="stroke:none;fill:#ff8000;fill-rule:evenodd" d="M127.326263,70.787781L126.93808,70.787781L126.93808,67.208679L127.326263,67.208679L127.326263,70.787781z"/>
    <path transform="matrix(1,0,0,-1,0,0)" style="stroke:none;fill:#ff8000;fill-rule:evenodd" d="M134.170502,74.055893C134.433762,74.094093,134.674316,74.226257,134.847748,74.427963L134.874603,74.2556L134.92099,74.108139L135.296967,74.108139L135.239838,74.261948C135.19191,74.476379,135.173019,74.696297,135.183685,74.915756L135.18222,75.780502C135.212311,76.026398,135.165024,76.275604,135.046967,76.493393C134.876709,76.686829,134.623108,76.786049,134.366791,76.759506C134.077911,76.791367,133.791199,76.679169,133.600677,76.459702C133.496384,76.311104,133.427734,76.140572,133.399994,75.961166L133.753998,75.902573L133.787689,76.034897C133.840332,76.274879,134.069977,76.433662,134.31308,76.398178C134.527054,76.430656,134.73288,76.301674,134.796967,76.094955C134.819046,75.983429,134.826263,75.869507,134.818451,75.756088C134.514511,75.660622,134.203491,75.589432,133.888275,75.543198L133.776459,75.504135C133.445541,75.349731,133.268143,74.984138,133.351654,74.628647C133.38121,74.442482,133.484543,74.27578,133.639008,74.167747C133.793457,74.059708,133.985489,74.019814,134.170502,74.055893zM134.058685,74.401108L133.973724,74.421616C133.777267,74.497841,133.67305,74.712852,133.734955,74.914291C133.786011,75.089752,133.942596,75.213806,134.125092,75.223373L134.413666,75.279526C134.55336,75.306206,134.689316,75.349823,134.818451,75.409409C134.851395,75.160187,134.808868,74.906693,134.696381,74.68187C134.556915,74.471748,134.307846,74.362091,134.058685,74.401108z"/>
    <path transform="matrix(1,0,0,-1,0,0)" style="stroke:none;fill:#ff8000;fill-rule:evenodd" d="M130.720795,74.055893C130.984024,74.094154,131.224579,74.226311,131.398041,74.427963L131.424896,74.2556L131.471283,74.108139L131.84726,74.108139L131.790131,74.261948C131.741516,74.476273,131.72261,74.696281,131.733978,74.915756L131.732513,75.780502C131.761932,76.026375,131.714691,76.275383,131.59726,76.493393C131.42688,76.686668,131.173386,76.785851,130.917084,76.759506C130.628189,76.791458,130.341446,76.679245,130.15097,76.459702C130.046097,76.311424,129.977386,76.140747,129.950287,75.961166L130.304291,75.902573L130.337494,76.034897C130.390305,76.274971,130.620148,76.433754,130.863373,76.398178C131.077316,76.43058,131.283127,76.30162,131.34726,76.094955C131.369217,75.983414,131.376434,75.869507,131.368744,75.756088C131.064804,75.660622,130.753784,75.589432,130.438568,75.543198L130.326752,75.504135C129.995804,75.349716,129.818268,74.984253,129.901459,74.628647C129.931152,74.442444,130.034546,74.275711,130.189087,74.167686C130.343613,74.059662,130.535721,74.019821,130.720795,74.055893zM130.60849,74.401108C130.414886,74.431564,130.273132,74.596992,130.268005,74.792847C130.262863,74.988701,130.395752,75.161324,130.587494,75.201889C130.711533,75.233673,130.83699,75.259583,130.96347,75.279526L131.12265,75.319077C131.207138,75.342026,131.289474,75.372246,131.368744,75.409409C131.401947,75.160133,131.359222,74.906509,131.246185,74.68187C131.10672,74.471741,130.857651,74.362083,130.60849,74.401108z"/>
    <path transform="matrix(1,0,0,-1,0,0)" style="stroke:none;fill:#ff8000;fill-rule:evenodd" d="M133.021576,74.083725L133.163177,74.113022L133.114349,74.501205L133.02597,74.48851C132.975433,74.469894,132.919388,74.471863,132.87085,74.495163C132.822311,74.518463,132.785721,74.560974,132.768646,74.612045C132.754745,74.688217,132.748688,74.765594,132.75058,74.843002L132.75058,76.359116L133.114349,76.359116L133.114349,76.700912L132.75058,76.700912L132.75058,77.606674L132.391693,77.343002L132.391693,76.700912L132.128021,76.700912L132.128021,76.359116L132.391693,76.359116L132.391693,74.867416C132.383362,74.694565,132.397797,74.521362,132.434662,74.35228C132.505188,74.164429,132.695496,74.049286,132.894623,74.073959L133.021576,74.083725z"/>
    <path transform="matrix(1,0,0,-1,0,0)" style="stroke:none;fill:#ff8000;fill-rule:evenodd" d="M128.379486,74.11937C128.620132,74.134521,128.848862,74.229553,129.029388,74.389389C129.336075,74.728882,129.510422,75.167351,129.520599,75.624741C129.581238,76.111671,129.50531,76.606178,129.301361,77.052475C129.125702,77.447693,128.72728,77.697464,128.295013,77.683334C127.898483,77.693405,127.501656,77.694702,127.105072,77.687241L127.105072,74.108139C127.529778,74.089691,127.95517,74.093437,128.379486,74.11937zM127.493256,74.530502L127.493256,77.264877C127.796074,77.285179,128.100143,77.279297,128.401947,77.247299C128.668442,77.212624,128.89328,77.031212,128.98349,76.778061C129.203781,76.175896,129.186157,75.513168,128.934174,74.923569C128.810577,74.685791,128.563965,74.536926,128.29599,74.538315C128.028656,74.523956,127.760818,74.521347,127.493256,74.530502z"/>
    <path transform="matrix(1,0,0,-1,0,0)" style="stroke:none;fill:#ff8000;fill-rule:evenodd" d="M139.72821,84.733047C140.012863,84.773483,140.25415,84.962532,140.36235,85.228897C140.470551,85.49527,140.429428,85.799026,140.253601,86.026505C140.11409,86.152657,139.944946,86.241508,139.761902,86.284805L139.411804,86.401993C139.277954,86.417992,139.157532,86.493004,139.084167,86.606094C139.024734,86.7341,139.060898,86.8862,139.17157,86.97377C139.396683,87.134026,139.705307,87.103165,139.894226,86.901505C139.943649,86.82325,139.97377,86.734406,139.982117,86.642227L140.333679,86.700821C140.332718,87.011696,140.130173,87.287041,139.833679,87.380508C139.522949,87.490448,139.177383,87.429893,138.922546,87.22084C138.652863,86.939941,138.635498,86.502724,138.882019,86.201309C139.022369,86.073708,139.192398,85.983231,139.376648,85.938126L139.701355,85.833633C139.85791,85.819389,139.991074,85.712433,140.038757,85.562637C140.072418,85.396591,139.994812,85.227722,139.846863,85.145157C139.600479,85.010826,139.293777,85.07135,139.116882,85.2892C139.055389,85.390152,139.018127,85.503944,139.007996,85.621719L138.649109,85.55336C138.662903,85.264236,138.812561,84.998085,139.052429,84.836075C139.25946,84.725975,139.497787,84.689644,139.72821,84.733047z"/>
    <path transform="matrix(1,0,0,-1,0,0)" style="stroke:none;fill:#ff8000;fill-rule:evenodd" d="M137.678406,84.733047C137.906311,84.7658,138.110199,84.893318,138.237686,85.085045C138.365158,85.276772,138.403854,85.514122,138.345886,85.736954C138.293106,85.974609,138.112091,86.162804,137.876648,86.224747C137.706589,86.288513,137.534805,86.347626,137.361511,86.401993L137.247742,86.444962C137.168472,86.460495,137.098251,86.50679,137.054153,86.574455C137.010056,86.642113,136.996048,86.725052,137.013855,86.803848C137.080994,86.991615,137.274277,87.103035,137.470398,87.067032C137.589066,87.075943,137.706741,87.036407,137.794266,86.955818C137.881805,86.875237,137.930923,86.761223,137.931824,86.642227L138.283386,86.700821C138.282394,87.011536,138.080124,87.286781,137.783875,87.380508C137.4254,87.514542,137.021881,87.405678,136.77948,87.109512C136.600342,86.826637,136.621536,86.461548,136.832214,86.201309C136.972534,86.073662,137.142578,85.983185,137.326843,85.938126L137.651062,85.833633C137.807648,85.819443,137.940826,85.712471,137.988464,85.562637C138.022614,85.39666,137.945099,85.2276,137.797058,85.145157C137.55069,85.010727,137.243912,85.071266,137.067078,85.2892C137.005676,85.390244,136.968277,85.50396,136.957703,85.621719L136.598816,85.55336C136.61293,85.264198,136.762726,84.998123,137.002625,84.836075C137.209656,84.725975,137.447983,84.689644,137.678406,84.733047z"/>
    <path transform="matrix(1,0,0,-1,0,0)" style="stroke:none;fill:#ff8000;fill-rule:evenodd" d="M135.496765,84.731583L135.65448,84.771622C135.983551,84.90419,136.215805,85.204033,136.261902,85.555801L135.890808,85.611954L135.847351,85.487442C135.772247,85.205124,135.487732,85.031532,135.202332,85.093887C134.975327,85.16317,134.802002,85.347061,134.746277,85.577774C134.710297,85.702568,134.689636,85.831284,134.684753,85.961075L136.271667,85.961075C136.294785,86.278236,136.242416,86.596298,136.118835,86.889297C135.950119,87.284538,135.522064,87.502472,135.10321,87.406387C134.740311,87.305099,134.463593,87.011459,134.383972,86.643204C134.256866,86.182846,134.28746,85.693047,134.470886,85.25209C134.653625,84.864685,135.076202,84.650276,135.496765,84.731583zM134.706726,86.322403L134.724792,86.484512C134.751938,86.750862,134.935455,86.975304,135.191101,87.054825C135.446121,87.109169,135.703781,86.973236,135.802917,86.732071C135.855988,86.601601,135.886536,86.463097,135.89325,86.322403L134.706726,86.322403z"/>
    <path transform="matrix(1,0,0,-1,0,0)" style="stroke:none;fill:#ff8000;fill-rule:evenodd" d="M133.44696,86.134415L133.46405,86.409805C133.472916,86.544678,133.508423,86.676445,133.568542,86.797501C133.649628,86.947319,133.82991,87.013145,133.988464,86.950821L134.120789,86.879044L134.242859,87.286758C134.080887,87.446342,133.828568,87.46846,133.641296,87.339493C133.542358,87.234497,133.464752,87.111282,133.412781,86.9767L133.412781,87.369766L133.088074,87.369766L133.088074,84.776993L133.44696,84.776993L133.44696,86.134415z"/>
    <path transform="matrix(1,0,0,-1,0,0)" style="stroke:none;fill:#ff8000;fill-rule:evenodd" d="M131.669128,84.724747C131.886536,84.762657,132.071686,84.904259,132.165222,85.104141L132.165222,84.776993L132.502136,84.776993L132.502136,88.356094L132.138367,88.356094L132.138367,87.071915L132.025085,87.221817C131.778107,87.474449,131.380234,87.499329,131.103699,87.279434C130.82428,87.024567,130.664764,86.664467,130.663757,86.28627C130.626892,85.940437,130.677429,85.590904,130.81073,85.269669C130.921692,85.016609,131.13652,84.823845,131.400085,84.74086C131.487854,84.717949,131.579254,84.712471,131.669128,84.724747zM131.493835,85.095352L131.388855,85.140762C131.16835,85.304169,131.037628,85.561623,131.035828,85.836075C131.001373,86.122948,131.029007,86.413857,131.116882,86.689102C131.17572,86.900024,131.361343,87.051582,131.579773,87.067032C131.811783,87.052338,132.010147,86.895744,132.078308,86.673477C132.207947,86.274582,132.207947,85.845322,132.078308,85.446426C132.011505,85.239044,131.824081,85.093338,131.606628,85.079727L131.493835,85.095352z"/>
    <path transform="matrix(1,0,0,-1,0,0)" style="stroke:none;fill:#ff8000;fill-rule:evenodd" d="M129.369324,84.724747C129.586655,84.76252,129.771729,84.904198,129.864929,85.104141L129.864929,84.776993L130.201843,84.776993L130.201843,88.356094L129.838074,88.356094L129.838074,87.071915L129.725281,87.221817C129.478088,87.474411,129.080124,87.499283,128.803406,87.279434C128.524277,87.024391,128.364975,86.664368,128.363953,86.28627C128.326981,85.94043,128.377518,85.590881,128.510925,85.269669C128.621567,85.016571,128.836288,84.823746,129.099792,84.74086C129.187729,84.717957,129.279297,84.712479,129.369324,84.724747zM129.194031,85.095352C128.967453,85.187309,128.806091,85.391296,128.768738,85.63295C128.669434,86.032898,128.711868,86.454643,128.888855,86.826797C128.986877,87.011856,129.200104,87.105095,129.402527,87.051407C129.63826,86.959579,129.803284,86.744743,129.831238,86.493301C129.910355,86.146202,129.892105,85.783821,129.778503,85.446426C129.711395,85.239052,129.523865,85.093422,129.306335,85.079727L129.194031,85.095352z"/>
    <path transform="matrix(1,0,0,-1,0,0)" style="stroke:none;fill:#ff8000;fill-rule:evenodd" d="M126.195984,85.860977L127.430359,85.860977L127.771667,84.776993L128.216003,84.776993L127.014343,88.356094L126.598816,88.356094L125.46698,84.776993L125.876648,84.776993L126.195984,85.860977zM126.309265,86.246719L126.635925,87.296524C126.704208,87.520676,126.757866,87.749016,126.79657,87.980118L126.834167,87.826797C126.978577,87.296074,127.136841,86.76918,127.308777,86.246719L126.309265,86.246719z"/>
    <path transform="matrix(1,0,0,-1,0,0)" style="stroke:none;fill:#ff8000;fill-rule:evenodd" d="M58.070869,95.560028L56.173897,95.560028L56.173897,94.460419L58.070869,94.460419L58.070869,95.560028z"/>
    <path transform="matrix(1,0,0,-1,0,0)" style="stroke:none;fill:#ff8000;fill-rule:evenodd" d="M95.464424,92.364716C96.428101,92.472511,97.147995,93.300186,97.121162,94.269501L97.121162,96.577118L95.568916,96.577118L95.568916,94.240204C95.575996,94.146225,95.550285,94.052704,95.496162,93.975555C95.402939,93.888329,95.268211,93.862709,95.149483,93.909637C95.03183,93.975868,94.966331,94.106277,94.983467,94.240204L94.983467,96.577118L93.431221,96.577118L93.431221,94.394012C93.40197,93.894257,93.550575,93.400185,93.850655,92.999481C94.246178,92.528053,94.853722,92.289078,95.464424,92.364716z"/>
    <path transform="matrix(1,0,0,-1,0,0)" style="stroke:none;fill:#ff8000;fill-rule:evenodd" d="M64.978584,96.635223L63.426338,96.635223L63.426338,92.49704L64.978584,92.49704L64.978584,96.635223z"/>
    <path transform="matrix(1,0,0,-1,0,0)" style="stroke:none;fill:#ff8000;fill-rule:evenodd" d="M89.962471,94.360809C89.947121,94.57766,89.999329,94.793968,90.111885,94.97995C90.276741,95.179855,90.55381,95.246536,90.791573,95.143524C90.938728,95.08535,91.056969,94.9711,91.119247,94.82563C91.181526,94.680168,91.182587,94.515747,91.123116,94.36911C91.069878,94.227699,90.963089,94.112801,90.825684,94.04995C90.688271,93.987099,90.531509,93.981453,90.389717,94.033661C90.320999,94.062943,90.256729,94.10173,90.198799,94.148895L90.198799,92.438934C91.35675,92.231789,92.468628,92.989532,92.699287,94.143036C92.924782,95.237091,92.270157,96.320824,91.196846,96.630341C90.090492,96.977257,88.909157,96.378571,88.534737,95.281219C88.448242,95.002098,88.406219,94.711098,88.410225,94.418915L88.410225,90.96579L89.962471,90.96579L89.962471,94.360809z"/>
    <path transform="matrix(1,0,0,-1,0,0)" style="stroke:none;fill:#ff8000;fill-rule:evenodd" d="M83.508858,94.726044C83.481804,94.885002,83.536072,95.047073,83.653389,95.157684C83.742447,95.206009,83.851898,95.195175,83.929756,95.130341C84.004173,95.010811,84.035645,94.869781,84.019112,94.72995L84.019112,92.49704L85.571358,92.49704L85.571358,94.726044C85.544167,94.88546,85.599503,95.047989,85.71833,95.157684C85.80764,95.20636,85.917587,95.195518,85.995674,95.130341C86.067871,95.009979,86.098221,94.869377,86.0821,94.72995L86.0821,92.49704L87.634346,92.49704L87.634346,94.871063C87.665199,95.328705,87.53437,95.78273,87.264717,96.153778C86.771767,96.749207,85.917397,96.892776,85.256905,96.49118C85.091835,96.390373,84.9384,96.271652,84.799385,96.137177C84.528625,96.464462,84.138847,96.671104,83.715881,96.71006C83.292908,96.749008,82.871948,96.617027,82.545967,96.344696C82.164108,96.022339,81.947609,95.545029,81.956612,95.04538L81.956612,92.49704L83.508858,92.49704L83.508858,94.726044z"/>
    <path transform="matrix(1,0,0,-1,0,0)" style="stroke:none;fill:#ff8000;fill-rule:evenodd" d="M107.05378,94.460419L107.060127,94.611786C107.050087,94.793915,107.138557,94.968056,107.291573,95.067352C107.449417,95.135315,107.631424,95.116058,107.771553,95.016571L107.771553,96.676727C107.25293,96.800011,106.706329,96.708237,106.256416,96.422333C105.799149,96.080574,105.523689,95.548187,105.508858,94.977509L105.501534,94.759247L105.501534,92.49704L107.05378,92.49704L107.05378,94.460419z"/>
    <path transform="matrix(1,0,0,-1,0,0)" style="stroke:none;fill:#ff8000;fill-rule:evenodd" d="M79.34333,92.423798L79.556221,92.453583C80.650345,92.667625,81.400871,93.680473,81.287178,94.78952C81.168282,95.972443,80.112442,96.833656,78.929756,96.712372C77.806969,96.634041,76.937958,95.697739,76.943428,94.572235C76.947121,93.373299,77.923225,92.406387,79.122139,92.414032L79.34333,92.423798zM79.000069,93.957001L78.890205,93.99118C78.580231,94.132813,78.436462,94.493523,78.564034,94.80954C78.668198,95.081688,78.954407,95.238441,79.239815,95.179657C79.52565,95.11718,79.726929,94.860825,79.719795,94.568329C79.726158,94.229942,79.456642,93.951019,79.118233,93.94577L79.000069,93.957001z"/>
    <path transform="matrix(1,0,0,-1,0,0)" style="stroke:none;fill:#ff8000;fill-rule:evenodd" d="M102.959541,92.421844C103.394028,92.459274,103.807388,92.62574,104.146553,92.899872L103.262764,93.962372L103.153877,93.860321C102.95018,93.682907,102.645576,93.687119,102.446846,93.870087C102.072769,94.303001,102.076721,94.943291,102.456123,95.371552C102.660667,95.550751,102.963051,95.560555,103.17878,95.394989C103.273071,95.302498,103.333298,95.180832,103.349678,95.049774L102.561104,95.049774C102.46949,94.81459,102.462242,94.55484,102.540596,94.314911L104.893623,94.314911C105.060608,95.426895,104.321625,96.473358,103.217842,96.687958C102.651863,96.807297,102.061447,96.696999,101.577332,96.380455C101.093216,96.063904,100.755417,95.567276,100.637764,95.000946C100.402733,93.907639,101.050522,92.817345,102.123116,92.500946C102.395119,92.425644,102.678246,92.398865,102.959541,92.421844z"/>
    <path transform="matrix(1,0,0,-1,0,0)" style="stroke:none;fill:#ff8000;fill-rule:evenodd" d="M100.129951,92.438934L100.129951,94.070282L99.938545,94.082001C99.687607,94.084839,99.476097,94.271782,99.442451,94.520477C99.414093,94.657608,99.400986,94.797455,99.403389,94.937469L100.100655,94.937469L100.100655,96.577118L99.403389,96.577118L99.403389,98.162567L97.851143,98.162567L97.851143,94.763153C97.827492,94.265167,97.951683,93.771286,98.208076,93.343719C98.641869,92.721329,99.373863,92.376717,100.129951,92.438934z"/>
    <path transform="matrix(1,0,0,-1,0,0)" style="stroke:none;fill:#ff8000;fill-rule:evenodd" d="M67.99958,92.438934L67.99958,94.070282L67.808662,94.082001C67.557724,94.084846,67.346214,94.27179,67.312569,94.520477C67.28421,94.657608,67.271111,94.797455,67.273506,94.937469L67.970772,94.937469L67.970772,96.577118L67.273506,96.577118L67.273506,98.162567L65.72126,98.162567L65.72126,94.763153C65.697609,94.265167,65.8218,93.771286,66.078194,93.343719C66.511848,92.721428,67.243637,92.376823,67.99958,92.438934z"/>
    <path transform="matrix(1,0,0,-1,0,0)" style="stroke:none;fill:#ff8000;fill-rule:evenodd" d="M60.765205,92.423798L60.982979,92.453094C62.085686,92.65313,62.846153,93.672058,62.72419,94.786102C62.616432,95.946365,61.596207,96.804489,60.434639,96.711884L60.193916,96.693329L60.193916,94.983368L60.30085,95.048798C60.425884,95.125977,60.576435,95.150764,60.719452,95.117073C60.862473,95.083382,60.986122,94.993988,61.063545,94.86911C61.242146,94.592003,61.16338,94.222595,60.887276,94.04245C60.637436,93.871643,60.298622,93.919258,60.105537,94.152313C59.993858,94.338631,59.942047,94.554749,59.9571,94.771454L59.9571,98.162567L58.404854,98.162567L58.404854,94.713348C58.370434,94.076614,58.607155,93.454643,59.056221,93.001923C59.517204,92.574005,60.139103,92.363625,60.765205,92.423798z"/>
    <path transform="matrix(1,0,0,-1,0,0)" style="stroke:none;fill:#ff8000;fill-rule:evenodd" d="M73.868721,92.367645C75.004509,92.429695,75.982162,93.193298,76.317451,94.280243C76.421608,94.585052,76.493614,94.89991,76.532295,95.219696L74.768623,95.265594L74.723213,94.983856C74.6306,94.410538,74.120064,93.998405,73.540108,94.028778C72.943604,94.020821,72.433228,94.454857,72.345284,95.044891C72.256096,95.479576,72.37825,95.931221,72.674385,96.261688C73.097725,96.703316,73.781395,96.763573,74.275459,96.402802C74.48632,96.217888,74.638847,95.975616,74.714424,95.705536L76.520088,95.825653C76.393448,96.53614,76.026939,97.182091,75.482002,97.655243C74.782349,98.21315,73.870979,98.430885,72.994698,98.249481C71.470459,97.961212,70.427834,96.543831,70.606514,95.002899C70.73912,93.477692,72.034508,92.31871,73.56501,92.355927L73.868721,92.367645z"/>
    <path transform="matrix(1,0,0,-1,0,0)" style="stroke:none;fill:#ff8000;fill-rule:evenodd" d="M53.954659,92.364716C54.217155,92.38501,54.473042,92.457024,54.707588,92.57663C55.605751,93.053368,55.999687,94.131111,55.620674,95.074677C55.499031,95.325325,55.334621,95.552856,55.134834,95.74704C55.499161,96.25177,55.542336,96.921211,55.243622,97.467323C54.944904,98.013443,54.357918,98.338196,53.736397,98.30368C53.288536,98.324097,52.851913,98.158546,52.530991,97.84549C52.210072,97.532433,52.033737,97.100052,52.043037,96.651825C52.041279,96.324364,52.149429,96.00576,52.350166,95.74704C51.726608,95.162422,51.550068,94.241806,51.916409,93.469551C52.282749,92.697296,53.107422,92.251625,53.954659,92.364716zM53.641182,96.153778C53.405762,96.201225,53.244026,96.418236,53.265167,96.657455C53.286316,96.896683,53.483604,97.081955,53.723701,97.087372C53.948719,97.091949,54.144577,96.934563,54.188545,96.713837C54.23909,96.461388,54.081017,96.214241,53.830635,96.154266C53.768028,96.142677,53.703842,96.142509,53.641182,96.153778zM53.595284,93.609344C53.274902,93.676712,53.047325,93.960464,53.048508,94.287842C53.04969,94.615211,53.279308,94.897316,53.600166,94.962372C53.968018,95.034821,54.326458,94.800911,54.408272,94.435028C54.4786,94.110298,54.310261,93.780762,54.005928,93.64743C53.875118,93.597282,53.733086,93.584106,53.595284,93.609344z"/>
    <path transform="matrix(1,0,0,-1,0,0)" style="stroke:none;fill:#ff8000;fill-rule:evenodd" d="M64.369209,97.009247L64.516182,97.047821C64.854034,97.1735,65.047195,97.529579,64.96833,97.881317C64.870682,98.290741,64.467194,98.54982,64.054268,98.468231C63.855545,98.43158,63.679497,98.317467,63.56501,98.150955C63.45052,97.984436,63.406998,97.779213,63.443916,97.580536C63.518425,97.223747,63.842728,96.975227,64.206612,96.996063L64.369209,97.009247z"/>
    <path transform="matrix(1,0,0,-1,0,0)" style="stroke:none;fill:#ff8000;fill-rule:evenodd" d="M123.465508,89.236847L122.366875,89.236847L122.366875,89.846222L123.356621,89.846222L123.356621,90.056183L122.366875,90.056183L122.366875,90.604523L123.424004,90.604523L123.424004,90.81546L122.130058,90.81546L122.130058,89.025909L123.465508,89.025909L123.465508,89.236847z"/>
    <path transform="matrix(1,0,0,-1,0,0)" style="stroke:none;fill:#ff8000;fill-rule:evenodd" d="M121.905449,90.81546L121.66375,90.81546C121.477531,90.336182,121.299103,89.853806,121.128593,89.368683L121.083672,89.222198L121.041191,89.3638C120.877304,89.85051,120.705017,90.334633,120.52459,90.81546L120.268242,90.81546L120.961601,89.025909L121.204765,89.025909L121.905449,90.81546z"/>
    <path transform="matrix(1,0,0,-1,0,0)" style="stroke:none;fill:#ff8000;fill-rule:evenodd" d="M119.201836,89.567902L119.949883,89.567902L120.158867,89.025909L120.428398,89.025909L119.695976,90.81546L119.441093,90.81546L118.753593,89.025909L119.005058,89.025909L119.201836,89.567902zM119.270195,89.760773L119.466484,90.285675C119.507278,90.397011,119.539597,90.511269,119.563164,90.627472L119.61541,90.461945C119.699837,90.227203,119.786896,89.993515,119.87664,89.760773L119.270195,89.760773z"/>
    <path transform="matrix(1,0,0,-1,0,0)" style="stroke:none;fill:#ff8000;fill-rule:evenodd" d="M118.139824,89.012726L118.302422,89.06546C118.53978,89.161453,118.667992,89.419975,118.600761,89.667023C118.497215,89.882477,118.288902,90.027885,118.050957,90.050812L117.787285,90.114777C117.673996,90.124916,117.571373,90.186028,117.508476,90.280792C117.468307,90.38102,117.50177,90.49572,117.589531,90.558624C117.801422,90.691887,118.075279,90.668816,118.261894,90.501984C118.306129,90.441025,118.332649,90.369064,118.338554,90.293976L118.565605,90.311066C118.563736,90.462791,118.495132,90.606079,118.378105,90.702667C118.09317,90.894363,117.721939,90.897049,117.434258,90.709503C117.25737,90.571175,117.210922,90.322815,117.325859,90.129913C117.432381,89.999008,117.582108,89.910728,117.748222,89.88089L118.065117,89.800323C118.228714,89.794487,118.365311,89.673454,118.3908,89.511749C118.386772,89.388741,118.303955,89.282265,118.185722,89.248077C117.945091,89.151245,117.670059,89.211433,117.491875,89.399933C117.450172,89.466446,117.424904,89.541931,117.418144,89.620148L117.194511,89.600616C117.195778,89.36734,117.335739,89.157112,117.550468,89.065948C117.738495,88.995186,117.942162,88.976791,118.139824,89.012726z"/>
    <path transform="matrix(1,0,0,-1,0,0)" style="stroke:none;fill:#ff8000;fill-rule:evenodd" d="M52.801979,89.033722C53.109375,89.049133,53.368805,89.268364,53.43528,89.568878C53.534248,89.88916,53.49403,90.236259,53.32444,90.525421C53.163219,90.747055,52.890377,90.859367,52.61985,90.81546L52.003151,90.81546L52.003151,89.025909C52.269386,89.014908,52.536015,89.017517,52.801979,89.033722zM52.239967,89.236847L52.239967,90.604523C52.426041,90.610901,52.612312,90.607803,52.798073,90.595245C53.05629,90.555038,53.243237,90.327553,53.232643,90.066437C53.260277,89.859604,53.22649,89.649231,53.135475,89.461456C53.022648,89.292999,52.822598,89.205437,52.622292,89.236847L52.239967,89.236847z"/>
    <path transform="matrix(1,0,0,-1,0,0)" style="stroke:none;fill:#ff8000;fill-rule:evenodd" d="M50.579811,89.567902L51.327858,89.567902L51.536842,89.025909L51.806374,89.025909L51.073952,90.81546L50.819069,90.81546L50.131569,89.025909L50.383034,89.025909L50.579811,89.567902zM50.64817,89.760773C50.775791,90.038635,50.873997,90.329163,50.941139,90.627472L50.993385,90.461945C51.077812,90.227203,51.164871,89.993515,51.254616,89.760773L50.64817,89.760773z"/>
    <path transform="matrix(1,0,0,-1,0,0)" style="stroke:none;fill:#ff8000;fill-rule:evenodd" d="M48.086647,89.236847L47.205299,89.236847L47.205299,90.81546L46.968483,90.81546L46.968483,89.025909L48.086647,89.025909L48.086647,89.236847z"/>
    <path transform="matrix(1,0,0,-1,0,0)" style="stroke:none;fill:#ff8000;fill-rule:evenodd" d="M49.276588,89.002472C49.504475,89.026161,49.711647,89.14518,49.846901,89.330109C50.127613,89.751289,50.067268,90.311821,49.703346,90.663605C49.354755,90.934784,48.85989,90.905563,48.545631,90.595245C48.224072,90.210022,48.21978,89.651871,48.535378,89.261749C48.725136,89.059227,49.001965,88.962395,49.276588,89.002472zM49.034889,89.209503C48.725559,89.285019,48.519009,89.576729,48.550514,89.893585C48.530273,90.102539,48.59565,90.310822,48.731667,90.470734C48.956142,90.689079,49.308861,90.70359,49.550514,90.504425C49.708233,90.352356,49.790028,90.137939,49.773659,89.919464C49.804749,89.639542,49.657082,89.369797,49.404518,89.245148C49.287273,89.198044,49.158974,89.185669,49.034889,89.209503z"/>
    <path transform="matrix(1,0,0,-1,0,0)" style="stroke:none;fill:#ff8000;fill-rule:evenodd" d="M120.650398,78.370621C121.173866,78.450584,121.616791,78.800362,121.815926,79.291031C122.042007,79.862831,122.145287,80.47554,122.119148,81.089859C122.149857,81.670044,122.059723,82.25042,121.8545,82.793961C121.603508,83.527077,120.848244,83.962952,120.087898,83.813492C119.565796,83.73365,119.123711,83.385399,118.923836,82.8965C118.695038,82.32267,118.590881,81.707016,118.618172,81.089859C118.593018,80.477562,118.694588,79.866646,118.916512,79.295425C119.19854,78.61232,119.925987,78.224319,120.650398,78.370621zM120.150398,78.920425C119.7668,79.052895,119.485725,79.383339,119.416512,79.783218C119.246239,80.653793,119.250389,81.549019,119.428719,82.417984C119.48497,82.738632,119.675735,83.020248,119.952644,83.191422C120.287971,83.364616,120.696579,83.304474,120.967781,83.042007C121.191246,82.811401,121.330788,82.512741,121.364265,82.193375C121.486488,81.394096,121.471794,80.580009,121.320808,79.78566C121.251236,79.385231,120.97023,79.054153,120.586433,78.920425C120.443459,78.883316,120.293373,78.883316,120.150398,78.920425z"/>
    <path transform="matrix(1,0,0,-1,0,0)" style="stroke:none;fill:#ff8000;fill-rule:evenodd" d="M110.685509,83.833023L110.260704,83.833023L110.15963,83.65773C109.786079,83.147141,109.285751,82.743073,108.70797,82.485367L108.70797,81.84816C109.190437,82.034065,109.636543,82.302887,110.026329,82.642593L110.026329,78.442398L110.685509,78.442398L110.685509,83.833023z"/>
    <path transform="matrix(1,0,0,-1,0,0)" style="stroke:none;fill:#ff8000;fill-rule:evenodd" d="M102.039635,79.075699L99.406334,79.075699L99.530846,79.254898C99.806938,79.569107,100.113602,79.854996,100.446373,80.108414L100.776451,80.393082C101.190674,80.714806,101.545235,81.106895,101.823814,81.551285C102.244087,82.250458,102.027359,83.15799,101.33651,83.591812C100.635742,83.973091,99.779007,83.91217,99.139244,83.435562C98.819839,83.13414,98.631638,82.719162,98.615318,82.280289L99.293053,82.210953L99.312584,82.449722C99.383469,82.95607,99.833694,83.321877,100.343834,83.287613C100.603203,83.306107,100.858841,83.216988,101.050179,83.040901C101.241508,82.864815,101.351509,82.617447,101.354576,82.357437C101.316643,81.96843,101.140488,81.606071,100.857994,81.335953C100.4655,80.929276,100.04467,80.550873,99.598717,80.203629L99.366783,79.993179C99.01844,79.696495,98.744766,79.321945,98.567955,78.899918C98.511734,78.75415,98.485497,78.598541,98.490807,78.442398L102.039635,78.442398L102.039635,79.075699z"/>
    <path transform="matrix(1,0,0,-1,0,0)" style="stroke:none;fill:#ff8000;fill-rule:evenodd" d="M90.511559,78.354996C91.40937,78.394577,92.11956,79.129211,92.128746,80.027847C92.156586,80.488617,91.934875,80.92907,91.54818,81.181168C91.417427,81.260246,91.274574,81.317322,91.125328,81.350113L91.297203,81.441422C91.819138,81.75528,92.017281,82.414841,91.754723,82.964371C91.48455,83.519371,90.910927,83.86055,90.294273,83.833023C89.597008,83.864151,88.965912,83.420876,88.758629,82.75441L88.679039,82.441422L89.338219,82.324234L89.386559,82.550797C89.438248,82.793434,89.582558,83.006912,89.790054,83.14286C89.997543,83.278809,90.250885,83.325882,90.49398,83.276382C90.899971,83.215996,91.197548,82.862511,91.187828,82.452164C91.205238,82.110497,90.998146,81.796883,90.677086,81.678726C90.462029,81.577301,90.223068,81.537079,89.986656,81.562515L89.913414,80.983902L90.168785,81.038589C90.659874,81.149712,91.160439,80.892021,91.355309,80.42775C91.581482,79.859749,91.313988,79.214531,90.752281,78.97316C90.385712,78.815559,89.961372,78.880341,89.658531,79.140152C89.448181,79.361916,89.313026,79.644348,89.272301,79.947281L88.613121,79.85939C88.657745,79.222351,89.073112,78.671135,89.67318,78.452652C89.943016,78.362984,90.228333,78.32975,90.511559,78.354996z"/>
    <path transform="matrix(1,0,0,-1,0,0)" style="stroke:none;fill:#ff8000;fill-rule:evenodd" d="M81.806755,79.727554L82.531853,79.727554L82.531853,80.332047L81.806755,80.332047L81.806755,83.81105L81.268181,83.81105L78.818474,80.332047L78.818474,79.727554L81.147575,79.727554L81.147575,78.442398L81.806755,78.442398L81.806755,79.727554zM79.466423,80.332047L81.147575,82.752457L81.147575,80.332047L79.466423,80.332047z"/>
    <path transform="matrix(1,0,0,-1,0,0)" style="stroke:none;fill:#ff8000;fill-rule:evenodd" d="M70.112694,78.360855C70.699799,78.409309,71.220772,78.757118,71.490623,79.280777C71.795105,79.84864,71.813736,80.526634,71.540916,81.110367C71.166733,81.837982,70.31543,82.18174,69.540916,81.917984C69.364365,81.858055,69.197433,81.772858,69.045311,81.665054L69.334862,83.107925L71.476952,83.107925L71.476952,83.737808L68.807518,83.737808L68.287498,80.979996L68.906151,80.899429L68.986229,81.009781C69.377167,81.460747,70.039597,81.557159,70.54287,81.236343C70.872192,80.998802,71.056198,80.608849,71.030174,80.203629C71.058479,79.773232,70.8694,79.356728,70.526756,79.094742C70.075836,78.755524,69.436005,78.842628,69.092186,79.290054C68.969086,79.475395,68.890411,79.686539,68.862206,79.907242L68.170311,79.848648C68.208084,79.211823,68.626617,78.660599,69.229881,78.45314C69.514923,78.363091,69.815193,78.331696,70.112694,78.360855z"/>
    <path transform="matrix(1,0,0,-1,0,0)" style="stroke:none;fill:#ff8000;fill-rule:evenodd" d="M60.730995,78.36525C61.349644,78.442215,61.866886,78.873192,62.054237,79.467789C62.289967,80.083344,62.202965,80.775864,61.822304,81.31398C61.320919,81.976234,60.38583,82.124535,59.70414,81.649918C59.538986,81.531013,59.397705,81.382118,59.287636,81.210953C59.27372,81.632591,59.336929,82.05323,59.474159,82.452164C59.594891,82.81398,59.868385,83.104614,60.222206,83.247086C60.65374,83.400215,61.130806,83.197334,61.319862,82.780289C61.365795,82.672058,61.401436,82.559746,61.426308,82.444839L62.081581,82.496109C62.046505,82.966568,61.784664,83.390945,61.379921,83.633316C60.710945,83.988167,59.890953,83.879143,59.337929,83.361832C58.99073,82.986488,58.771824,82.510361,58.712929,82.002457C58.561932,81.177216,58.603703,80.328415,58.834999,79.521988C59.100719,78.726273,59.901867,78.237488,60.730995,78.36525zM60.343788,78.902847C59.867729,78.990364,59.499317,79.370148,59.426308,79.848648C59.317345,80.261345,59.420326,80.70108,59.70121,81.022476C60.056511,81.390862,60.624863,81.449982,61.048378,81.162613C61.359035,80.919495,61.529179,80.538643,61.502968,80.145035C61.52079,79.813072,61.413654,79.486427,61.202675,79.229507C60.993439,78.977669,60.667496,78.853706,60.343788,78.902847z"/>
    <path transform="matrix(1,0,0,-1,0,0)" style="stroke:none;fill:#ff8000;fill-rule:evenodd" d="M142.098267,89.544937L102.098267,99.544937L142.098267,99.544937L142.098267,89.544937z"/>
    <path transform="matrix(1,0,0,-1,0,0)" style="stroke:none;fill:#ff8000;fill-rule:evenodd" d="M42.098274,89.544937L46.162281,89.583054L42.098274,99.544937L42.098274,89.544937z"/>
    <path transform="matrix(1,0,0,-1,0,0)" style="stroke:none;fill:#ff8000;fill-rule:evenodd" d="M49.746155,78.835464L49.800842,79.212418C50.087662,80.700378,50.762318,82.085732,51.756897,83.229019L51.756897,83.741714L48.281799,83.741714L48.281799,83.107925L50.911194,83.107925L50.663635,82.805679C49.703632,81.542709,49.136337,80.025391,49.032288,78.442398L49.710022,78.442398L49.746155,78.835464z"/>
</svg>
